# xmcd
#
# Track frame offsets: 
#        150
#        10569
#        24434
#        36401
#        57433
#        82228
#        99955
#        112008
#        131061
#        144675
#        158225
#        171018
#        180933
#        197726
#
# Disc length: 2894 seconds
#
# Revision: 0
# Processed by: cddbd v1.5.2PL0 Copyright (c) Steve Scherf et al.
# Submitted via: ExactAudioCopy v0.95b4
#
DISCID=b80b4c0e
DTITLE=Russ Anderson - Coming On The Wind
DYEAR=2006
DGENRE=Country
TTITLE0=Love Is
TTITLE1=Tuesday Morning
TTITLE2=The Meaning Of It All
TTITLE3=Coming On The Wind
TTITLE4=The House Of The Rising Sun
TTITLE5=Don't Cry For Me
TTITLE6=Birds Of A Feather
TTITLE7=Arise
TTITLE8=She's Got The Morning In Her Eyes
TTITLE9=Good Day
TTITLE10=Troubled Times
TTITLE11=Little Lamb
TTITLE12=Jesus Loves Me
TTITLE13=One
EXTD=
EXTT0=
EXTT1=
EXTT2=
EXTT3=
EXTT4=
EXTT5=
EXTT6=
EXTT7=
EXTT8=
EXTT9=
EXTT10=
EXTT11=
EXTT12=
EXTT13=
PLAYORDER=
